<svg height="510pt" viewBox="0 -39 510.18974 510" width="510pt" xmlns="http://www.w3.org/2000/svg"><path d="m275.363281 139.632812-20.433593-11.675781v11.675781zm0 0"/><path d="m444.316406 139.632812c.457032.046876.910156.132813 1.351563.253907 1.8125-.320313 3.679687-.074219 5.347656.703125l9.566406 4.78125-21.414062-95.605469c-.53125-2.375-1.984375-4.445313-4.046875-5.742187-2.058594-1.300782-4.550782-1.722657-6.925782-1.179688l-252.945312 56.796875 9.007812 39.992187h52.386719v-27.429687c-.007812-3.269531 1.734375-6.292969 4.5625-7.933594 2.832031-1.636719 6.320313-1.636719 9.152344-.003906l54.855469 31.359375 14.375-35.964844c1.042968-2.609375 3.222656-4.589844 5.917968-5.378906 2.695313-.789062 5.601563-.296875 7.886719 1.335938l61.613281 44.015624zm-70.527344-45.714843c0-15.148438 12.277344-27.429688 27.425782-27.429688 15.148437 0 27.429687 12.28125 27.429687 27.429688 0 15.148437-12.28125 27.425781-27.429687 27.425781-15.148438 0-27.425782-12.277344-27.425782-27.425781zm0 0"/><path d="m162.3125 83.859375 34.496094-7.753906-73.289063-73.332031c-3.570312-3.570313-9.355469-3.570313-12.925781 0l-101.414062 101.410156c-3.570313 3.570312-3.570313 9.359375 0 12.929687l22.519531 22.519531h133.8125l-10.109375-44.894531c-.546875-2.371093-.125-4.863281 1.171875-6.921875s3.363281-3.515625 5.738281-4.046875zm-116.113281 37.484375c-3.699219 0-7.03125-2.226562-8.445313-5.640625-1.414062-3.417969-.632812-7.351563 1.980469-9.964844l73.144531-73.140625c3.585938-3.464844 9.289063-3.417968 12.816406.109375 3.527344 3.527344 3.574219 9.230469.109376 12.816407l-73.140626 73.144531c-1.714843 1.714843-4.039062 2.675781-6.464843 2.675781zm107.035156-48.390625-45.714844 45.714844c-3.585937 3.464843-9.289062 3.414062-12.816406-.113281-3.527344-3.527344-3.574219-9.230469-.109375-12.816407l45.710938-45.714843c2.296874-2.375 5.695312-3.328126 8.894531-2.492188 3.195312.835938 5.691406 3.332031 6.527343 6.53125.835938 3.195312-.117187 6.59375-2.492187 8.890625zm0 0"/><path d="m323.292969 139.632812h40.253906l-31.304687-22.363281zm0 0"/><path d="m254.929688 295.058594c0 15.148437-12.28125 27.429687-27.429688 27.429687s-27.425781-12.28125-27.425781-27.429687c0-15.148438 12.277343-27.425782 27.425781-27.425782s27.429688 12.277344 27.429688 27.425782zm0 0"/><path d="m510.191406 190.621094-55.085937-27.539063 27.34375 246.355469zm0 0"/><path d="m154.359375 285.917969c5.050781 0 9.140625 4.09375 9.140625 9.140625 0 5.050781-4.089844 9.144531-9.140625 9.144531h-138.121094l13.300781 119.863281c.515626 4.628906 4.421876 8.132813 9.082032 8.136719h417.734375c2.601562 0 5.078125-1.105469 6.8125-3.042969s2.5625-4.523437 2.277343-7.105468l-13.03125-117.851563h-151.769531c-5.050781 0-9.144531-4.09375-9.144531-9.144531 0-5.046875 4.09375-9.140625 9.144531-9.140625h149.695313l-10.722656-96.742188c-.585938-1.191406-.898438-2.5-.914063-3.832031.054687-.515625.160156-1.027344.308594-1.523438l-2.878907-25.902343h-436.132812l14.207031 128zm73.140625-36.574219c25.25 0 45.714844 20.46875 45.714844 45.714844 0 25.25-20.464844 45.714844-45.714844 45.714844-25.246094 0-45.710938-20.464844-45.710938-45.714844.027344-25.234375 20.476563-45.683594 45.710938-45.714844zm0 0"/><path d="m410.359375 93.917969c0 5.046875-4.09375 9.140625-9.144531 9.140625-5.046875 0-9.140625-4.09375-9.140625-9.140625 0-5.050781 4.09375-9.144531 9.140625-9.144531 5.050781 0 9.144531 4.09375 9.144531 9.144531zm0 0"/></svg>