<svg id="Capa_1" enable-background="new 0 0 512 512" height="512" viewBox="0 0 512 512" width="512" xmlns="http://www.w3.org/2000/svg"><g><path d="m30 457c0 30.327 24.673 55 55 55h342c30.327 0 55-24.673 55-55v-5h-452z"/><path d="m346 302c0 16.569 13.431 30 30 30s30-13.431 30-30v-30h-60z"/><path d="m166 82h15v-27c0-13.785 11.215-25 25-25h100c13.785 0 25 11.215 25 25v27h15v160h60v-160h-45v-27c0-30.327-24.673-55-55-55h-100c-30.327 0-55 24.673-55 55v27h-45v160h60z"/><path d="m436 267v35c0 33.084-26.916 60-60 60s-60-26.916-60-60v-35h-120v35c0 33.084-26.916 60-60 60s-60-26.916-60-60v-35h-11c-12.354 0-24.163-2.373-35-6.682v161.682h452v-161.682c-10.837 4.31-22.646 6.682-35 6.682z"/><path d="m196 82h120v155h-120z"/><path d="m76 237v-155h-61c-8.284 0-15 6.716-15 15v75c0 35.841 29.159 65 65 65z"/><path d="m497 82h-61v155h11c35.841 0 65-29.159 65-65v-75c0-8.284-6.716-15-15-15z"/><path d="m136 332c16.569 0 30-13.431 30-30v-30h-60v30c0 16.569 13.431 30 30 30z"/></g></svg>